<svg viewBox="0 0 100 100" xmlns="http://www.w3.org/2000/svg">
  <rect width="100" height="100" rx="16" fill="#4285F4"/>
  <g transform="translate(18, 18) scale(0.64)">
    <path d="M50,20 C61.5,20 70.8,24.5 77.2,31.5 L63.3,45.4 C59.6,41.5 54.8,39.2 50,39.2 C38.8,39.2 29.7,48.4 29.7,60 C29.7,71.6 38.8,80.8 50,80.8 C62.8,80.8 68.9,72.5 70.2,66.5 L50,66.5 L50,49.5 L88.5,49.5 C89.3,53.3 89.7,57.5 89.7,62 C89.7,83.7 74.2,100 50,100 C26.5,100 7.5,81 7.5,60 C7.5,39 26.5,20 50,20 Z" fill="white"/>
  </g>
</svg>