<svg viewBox="0 0 100 100" xmlns="http://www.w3.org/2000/svg">
  <rect width="100" height="100" rx="16" fill="#0668E1"/>
  <g transform="translate(15, 25) scale(0.7)">
    <path d="M15,0 C6.7,0 0,8.5 0,25 C0,41.5 6.7,50 15,50 C22,50 27.5,44 35,35 C42.5,44 48,50 55,50 C63.3,50 70,41.5 70,25 C70,8.5 63.3,0 55,0 C48,0 42.5,6 35,15 C27.5,6 22,0 15,0 Z M15,10 C18.5,10 22.5,13.5 28,20 L35,28.5 L42,20 C47.5,13.5 51.5,10 55,10 C58.5,10 60,16 60,25 C60,34 58.5,40 55,40 C51.5,40 47.5,36.5 42,30 L35,21.5 L28,30 C22.5,36.5 18.5,40 15,40 C11.5,40 10,34 10,25 C10,16 11.5,10 15,10 Z" fill="white"/>
  </g>
</svg>