<svg viewBox="0 0 100 100" xmlns="http://www.w3.org/2000/svg">
  <rect width="100" height="100" rx="16" fill="#76B900"/>
  <g transform="translate(15, 25) scale(0.7)">
    <path d="M35.5,0 C35.5,0 25.8,0.3 16,10.8 C16,10.8 5.5,21.5 5.5,40 C5.5,40 5.5,58.5 16,69.2 C16,69.2 25.8,79.7 35.5,80 L35.5,72 C35.5,72 28.5,71.5 22,64 C22,64 15,56 15,40 C15,40 15,24 22,16 C22,16 28.5,8.5 35.5,8 L35.5,0 Z" fill="white"/>
    <path d="M35.5,8 L35.5,24 C35.5,24 41,24.5 46,30 C46,30 51,36 51,40 C51,40 51,44 46,50 C46,50 41,55.5 35.5,56 L35.5,72 C35.5,72 50,71 60,60 C60,60 70,48 70,40 C70,40 70,32 60,20 C60,20 50,9 35.5,8 Z" fill="white"/>
    <path d="M35.5,24 L35.5,56 C35.5,56 42,55 46,50 C46,50 51,44 51,40 C51,40 51,36 46,30 C46,30 42,25 35.5,24 Z" fill="#76B900"/>
  </g>
</svg>